PathFileType	4	(X/Y/Z)	F:\MotionCapture\20160217\3\Generated_files\EMG_test02-Dynamic.trc
DataRate	CameraRate	NumFrames	NumMarkers	Units	OrigDataRate	OrigDataStartFrame	OrigNumFrames
120.00	120.00	       4	39	mm	120.00	255	       679
Frame#	Time	Top.Head			Front.Head			Rear.Head			R.Shoulder			R.Offset			R.Elbow			R.Wrist			L.Shoulder			L.Elbow			L.Wrist			R.ASIS			L.ASIS			V.Sacral			R.Thigh			R.Knee			R.Shank			R.Ankle			R.Heel			R.Toe			L.Thigh			L.Knee			L.Shank			L.Ankle			L.Heel			L.Toe			R1			R2			R3			R4			R5			R6			R7			L1			L2			L3			L4			L5			L6			L7			V_Mid_ASIS			V_Pelvis_Origin			V_R.Hip_JC			V_L.Hip_JC			V_R.Knee_JC			V_L.Knee_JC			V_R.Ankle_JC			V_L.Ankle_JC			V_Mid_Hip			V_Mid_Shoulder			V_R.Hand			V_L.Hand			V_R.Toe_Offset_Static			V_L.Toe_Offset_Static			V_R.Toe_Offset			V_L.Toe_Offset			
		X1	Y1	Z1	X2	Y2	Z2	X3	Y3	Z3	X4	Y4	Z4	X5	Y5	Z5	X6	Y6	Z6	X7	Y7	Z7	X8	Y8	Z8	X9	Y9	Z9	X10	Y10	Z10	X11	Y11	Z11	X12	Y12	Z12	X13	Y13	Z13	X14	Y14	Z14	X15	Y15	Z15	X16	Y16	Z16	X17	Y17	Z17	X18	Y18	Z18	X19	Y19	Z19	X20	Y20	Z20	X21	Y21	Z21	X22	Y22	Z22	X23	Y23	Z23	X24	Y24	Z24	X25	Y25	Z25	X26	Y26	Z26	X27	Y27	Z27	X28	Y28	Z28	X29	Y29	Z29	X30	Y30	Z30	X31	Y31	Z31	X32	Y32	Z32	X33	Y33	Z33	X34	Y34	Z34	X35	Y35	Z35	X36	Y36	Z36	X37	Y37	Z37	X38	Y38	Z38	X39	Y39	Z39	

255	2.117	1658.08386	179.59975	1733.88135	1544.50769	176.45990	1651.30981	1765.53015	175.27280	1664.75000	1715.63025	378.11505	1436.60193	1855.66504	115.57730	1293.83752	1767.86902	510.60941	1127.54578	1624.14368	492.06738	904.28577	1696.89600	-27.20826	1424.97046	1751.12195	-138.11774	1113.51892	1670.10132	-147.22868	865.95715	1677.18921	330.84134	952.52417	1662.98792	44.48668	956.12592	1892.73499	173.33195	960.95868	1657.01782	261.99890	573.56384	1727.90222	299.55078	466.85767	1758.44568	215.41212	237.31302	1825.27490	280.39185	75.89701	1896.66858	220.16513	50.21989	1682.60803	258.90274	43.68881	1541.65222	32.19271	676.08496	1608.75208	-23.30495	494.90164	1630.80225	60.14986	355.15491	1830.80273	58.68195	155.12892	1872.57349	135.58614	164.17686	1721.71802	23.10346	73.49089	1637.40503	236.46220	42.03279	1678.64124	220.14153	48.47876	1776.39258	186.62680	58.06079	1851.30359	188.15134	47.53454	1865.75757	262.56503	50.17392	1789.45300	287.71228	41.33509	1722.05530	303.85635	39.70710	1678.12708	30.67661	56.32413	1698.44104	54.61058	72.71425	1754.78906	122.64330	118.02429	1826.55188	151.97853	147.25462	1865.96399	89.31669	151.93268	1816.48523	38.52041	109.44704	1766.22668	9.88838	82.31847																																																	2309.49658	133.11215	-152.04185	
256	2.125	1644.74463	179.63631	1733.31995	1531.09485	176.58817	1650.87537	1752.80945	175.02361	1664.29248	1702.86304	378.29498	1436.58459	1843.56067	115.88523	1293.47473	1751.49060	511.98352	1127.83997	1601.44373	491.02512	908.79431	1685.35742	-27.57405	1423.88208	1743.87439	-138.63887	1114.29260	1670.06238	-150.01634	863.89478	1666.77417	331.78064	951.87708	1650.97620	45.32961	956.41388	1880.85986	171.77306	960.36139	1651.61646	262.30887	571.16064	1724.88831	298.88187	466.29718	1757.32642	214.90784	237.16983	1825.03577	280.13797	75.99834	1896.49683	219.72012	50.77751	1682.60876	259.10440	43.76293	1525.61853	33.68440	679.18341	1589.46667	-21.80519	495.77182	1604.57605	62.13326	355.86444	1794.05750	59.14871	144.82489	1836.37085	136.39127	152.08241	1680.37854	24.92006	70.67631	1636.85059	236.70636	42.06802	1678.59131	220.18721	48.41864	1777.13916	186.62683	57.63824	1852.35083	187.92674	49.44618	1865.56848	262.12961	50.52156	1789.42480	287.67307	41.46189	1722.16394	303.88165	39.66660	1635.90417	31.85611	57.08217	1657.93433	55.19958	71.26826	1717.17651	122.52605	112.62136	1790.06042	152.42955	137.07306	1829.15356	89.68298	139.84933	1777.70459	38.39973	100.77605	1724.44019	10.39805	77.50045																																																	1630.65454	63.98265	83.12090	
257	2.133	1631.77820	178.72940	1732.57532	1520.52026	176.17915	1649.55676	1740.05310	174.90677	1663.63171	1689.99890	378.24048	1436.10901	1831.32312	116.27045	1292.74353	1735.32666	513.72211	1127.86536	1580.51941	490.65604	913.56744	1672.73279	-27.21149	1422.50354	1737.32166	-139.07660	1114.77368	1669.68115	-152.26964	862.91187	1655.19690	332.09161	950.64148	1638.45825	45.60978	955.97974	1869.06775	170.55885	959.38556	1644.74829	262.54263	569.77063	1720.94629	299.11264	465.73245	1755.36328	214.24852	237.01732	1824.79785	279.73892	76.23392	1896.17139	219.14964	51.05047	1682.67053	259.24188	43.52265	1509.45593	35.64149	681.90955	1570.67358	-20.22277	496.88312	1578.64636	63.57837	356.95224	1756.29565	58.92109	134.79227	1800.18591	135.96928	139.10695	1639.01855	25.38450	69.02225	1636.60059	237.22096	41.76290	1678.37000	220.13681	48.55461	1778.41113	185.60542	57.59330	1851.99707	186.74651	49.01011	1865.34827	261.63120	50.90197	1789.51721	287.63156	41.49362	1722.22437	303.89401	39.55220	1593.42456	33.21573	57.85622	1614.91431	56.56813	70.90620	1677.66199	123.93915	107.02829	1753.08911	152.33542	127.33016	1791.74182	89.17976	127.84729	1737.53748	38.50907	92.02797	1683.60083	10.83098	72.52631																																																	1588.64392	65.17937	82.48440	2798.13745	-197.31183	1683.67725	
258	2.142	1619.14722	178.87201	1731.49316	1508.81653	175.70688	1648.16711	1727.40881	174.82997	1662.72522	1677.75037	377.98889	1435.72729	1819.30786	116.61982	1291.77759	1720.14856	514.83240	1127.51550	1558.26843	489.23605	918.14978	1660.79407	-27.54548	1421.42590	1730.14893	-139.13756	1114.97913	1669.75037	-154.99469	861.53668	1644.24890	332.76123	949.43292	1627.47839	47.08932	954.97253	1857.31104	169.06158	958.31555	1636.71313	262.68536	567.67462	1716.16565	298.56876	464.44318	1753.84216	213.93027	236.52403	1825.39612	279.85245	76.60597	1896.03235	218.48625	51.58161	1682.74609	258.75842	43.56476	1494.69202	37.81379	683.77802	1551.66296	-18.27154	497.90408	1554.72253	65.14836	357.04971	1718.95801	58.12671	125.79749	1763.74329	134.84579	126.28956	1597.80298	25.81484	68.04408	1636.50549	237.46182	41.69388	1678.31628	219.94608	48.52876	1778.10254	185.44000	57.55812	1851.64514	186.50880	49.16656	1865.25818	261.23407	51.31173	1790.00623	286.27142	41.11780	1722.87073	304.16751	39.56080	1550.04382	34.17447	59.90486	1573.28674	57.52882	70.80153	1640.89343	122.61735	102.46966	1715.59888	151.27640	117.73231	1753.57520	88.25845	116.12181	1696.67065	37.82980	83.66603	1641.16711	11.27747	68.32817																																																	2310.57251	133.43388	-152.53593	2772.09180	-194.86203	1681.77771	
